<?xml version="1.0" encoding="UTF-8" standalone="no"?>
<!-- Generator: Adobe Illustrator 23.0.1, SVG Export Plug-In . SVG Version: 6.00 Build 0)  -->

<svg
   version="1.1"
   id="Layer_1"
   x="0px"
   y="0px"
   viewBox="0 0 193.85449 197.72995"
   xml:space="preserve"
   sodipodi:docname="jestermyswagger.svg"
   width="193.85449"
   height="197.72995"
   inkscape:version="1.1.1 (3bf5ae0d25, 2021-09-20, custom)"
   inkscape:export-filename="/home/user/git/nim_jester2swagger/private/jestermyswagger.png"
   inkscape:export-xdpi="148.57001"
   inkscape:export-ydpi="148.57001"
   xmlns:inkscape="http://www.inkscape.org/namespaces/inkscape"
   xmlns:sodipodi="http://sodipodi.sourceforge.net/DTD/sodipodi-0.dtd"
   xmlns="http://www.w3.org/2000/svg"
   xmlns:svg="http://www.w3.org/2000/svg"><defs
   id="defs131" /><sodipodi:namedview
   id="namedview129"
   pagecolor="#ffffff"
   bordercolor="#666666"
   borderopacity="1.0"
   inkscape:pageshadow="2"
   inkscape:pageopacity="0.0"
   inkscape:pagecheckerboard="0"
   showgrid="false"
   inkscape:zoom="2.0127028"
   inkscape:cx="90.922517"
   inkscape:cy="59.621322"
   inkscape:window-width="1920"
   inkscape:window-height="1012"
   inkscape:window-x="1518"
   inkscape:window-y="1479"
   inkscape:window-maximized="1"
   inkscape:current-layer="g126"
   inkscape:snap-nodes="true" />
<style
   type="text/css"
   id="style2">
	.st0{fill:#FFFFFF;}
	.st1{fill:#2C282C;}
	.st2{fill:#173647;}
	.st3{fill:#50E4EA;}
	.st4{fill:#FCDC00;}
	.st5{fill:#85EA2D;}
	.st6{fill:#F4CF14;}
	.st7{fill:none;}
	.st8{fill:#04AADB;}
	.st9{fill:#07CED6;}
	.st10{fill:#63DB2A;}
	.st11{fill:#FF730B;}
	.st12{fill:#17D1FC;}
	.st13{fill:#00AADB;}
	.st14{fill:#758491;}
</style>
<g
   id="g126"
   transform="translate(46.411644,83.114785)">
	
	<path
   style="fill:#07d7f8;fill-opacity:1;stroke:#000000;stroke-width:1px;stroke-linecap:butt;stroke-linejoin:miter;stroke-opacity:1;paint-order:markers stroke fill"
   d="M 91.831593,27.355536 C 96.707872,15.824503 102.71288,4.6886803 112.84292,-2.1398738 123.41645,-4.885383 128.68933,10.061025 142.89456,26.852411 L 135.46146,4.8401649 C 128.45029,-12.069539 118.32466,-38.487906 94.642253,-21.383269 L 68.017994,3.4885257"
   id="path2164"
   sodipodi:nodetypes="cccccc"
   inkscape:export-filename="/home/user/git/nim_jester2swagger/private/jestermysvagger.png"
   inkscape:export-xdpi="148.57001"
   inkscape:export-ydpi="148.57001" /><path
   style="fill:#f84107;fill-opacity:1;stroke:#000000;stroke-width:1px;stroke-linecap:butt;stroke-linejoin:miter;stroke-opacity:1;paint-order:markers stroke fill"
   d="M 9.1051482,27.849586 C 3.5161305,17.712592 -0.34012962,4.6277505 -11.653626,-2.3994827 -22.227153,-5.1449919 -27.500035,9.801416 -41.705268,26.592802 l 7.4331,-22.012246 c 7.011175,-16.909704 13.574954,-42.054889 37.2573612,-24.950252 L 33.673795,3.7355992"
   id="path1113"
   sodipodi:nodetypes="cccccc"
   inkscape:export-filename="/home/user/git/nim_jester2swagger/private/jestermysvagger.png"
   inkscape:export-xdpi="148.57001"
   inkscape:export-ydpi="148.57001" /><path
   style="fill:#f8b807;fill-opacity:1;stroke:#000000;stroke-width:1px;stroke-linecap:butt;stroke-linejoin:miter;stroke-opacity:1;paint-order:markers stroke fill"
   d="M 29.434283,5.0795954 C 35.964334,-21.791333 42.47722,-41.161019 49.024435,-75.533189 l 3.435289,-0.06661 c 5.827846,35.428787 10.386257,51.723187 19.249504,80.9501427"
   id="path2317"
   sodipodi:nodetypes="cccc"
   inkscape:export-filename="/home/user/git/nim_jester2swagger/private/jestermysvagger.png"
   inkscape:export-xdpi="148.57001"
   inkscape:export-ydpi="148.57001" /><g
   id="g36"
   transform="matrix(0.92117168,0,0,1,4.3039411,-0.88917288)"
   inkscape:export-filename="/home/user/git/nim_jester2swagger/private/jestermysvagger.png"
   inkscape:export-xdpi="148.57001"
   inkscape:export-ydpi="148.57001">
		<g
   id="g32">
			<g
   id="g30">
				<g
   id="g28">
					<g
   id="g20">
						<path
   class="st5"
   d="m 50.328,97.669 c -26.27,0 -47.643,-21.371 -47.643,-47.642 0,-26.271 21.373,-47.642 47.643,-47.642 26.27,0 47.643,21.373 47.643,47.643 0,26.27 -21.373,47.641 -47.643,47.641 z"
   id="path18" />
					</g>
					<g
   id="g26">
						<g
   id="g24">
							<path
   class="st2"
   d="m 50.328,4.769 c 24.996,0 45.258,20.262 45.258,45.258 0,24.995 -20.262,45.258 -45.258,45.258 C 25.333,95.285 5.07,75.022 5.07,50.027 5.07,25.032 25.333,4.769 50.328,4.769 M 50.328,0 C 22.743,0 0.301,22.442 0.301,50.027 c 0,27.585 22.442,50.027 50.027,50.027 27.585,0 50.028,-22.442 50.028,-50.027 C 100.356,22.442 77.913,0 50.328,0 Z"
   id="path22" />
						</g>
					</g>
				</g>
			</g>
		</g>
		<path
   class="st2"
   d="m 53.556222,79.267222 c 0.096,-2.232 0.846,-3.348 2.963,-3.905 1.346,-0.347 2.751,-0.558 4.136,-0.635 2.578,-0.154 5.175,-0.135 7.753,-0.308 6.117,-0.404 8.252,-4.828 7.195,-11.254 h -5.31 c 0,1.019 0,1.808 -0.019,2.597 -0.019,1.366 -0.539,2.405 -2.059,2.539 -1.385,0.135 -2.789,0.135 -4.194,0.27 -2.79,0.27 -5.617,0.423 -8.368,0.904 -2.27,0.424 -3.963,1.982 -5.348,3.924 -2.289,-3.404 -5.559,-4.405 -9.234,-4.578 -2.52,-0.096 -5.059,-0.154 -7.599,-0.288 -2.308,-0.116 -3.058,-0.923 -3.116,-3.251 -0.019,-0.654 -0.077,-1.289 -0.116,-2.02 h -5.444 c 0,1.366 -0.077,2.616 0,3.866 0.231,3.886 2.116,6.233 5.887,7.003 2.078,0.327 4.174,0.519 6.271,0.577 1.924,0.134 3.867,0.116 5.771,0.308 2.982,0.288 4.213,1.654 4.405,4.636 0.039,0.289 0.096,0.558 0.192,0.828 h 6.099 c 0.058,-0.501 0.115,-0.848 0.135,-1.213 z"
   id="path34"
   sodipodi:nodetypes="cccccccccccccccccccccccc" />
	</g>
	
<path
   style="fill:none;stroke:#000000;stroke-width:0;stroke-linecap:butt;stroke-linejoin:miter;stroke-miterlimit:4;stroke-dasharray:none;stroke-opacity:1"
   d="m 42.818025,55.79304 13.544743,-0.0118 8e-5,0.09224"
   id="path3721"
   inkscape:export-filename="/home/user/git/nim_jester2swagger/private/jestermysvagger.png"
   inkscape:export-xdpi="148.57001"
   inkscape:export-ydpi="148.57001" /><ellipse
   style="fill:#173647;fill-opacity:1;stroke:#173647;stroke-width:3.9;stroke-linecap:round;stroke-linejoin:bevel;stroke-miterlimit:4;stroke-dasharray:none;stroke-opacity:1;paint-order:markers stroke fill"
   id="path7211"
   cx="50.444069"
   cy="53.930939"
   rx="2.9473965"
   ry="2.7195702"
   inkscape:export-filename="/home/user/git/nim_jester2swagger/private/jestermysvagger.png"
   inkscape:export-xdpi="148.57001"
   inkscape:export-ydpi="148.57001" /><ellipse
   style="fill:#173647;fill-opacity:1;stroke:#173647;stroke-width:3.9;stroke-linecap:round;stroke-linejoin:bevel;stroke-miterlimit:4;stroke-dasharray:none;stroke-opacity:1;paint-order:markers stroke fill"
   id="path10051"
   cx="-42.300999"
   cy="27.554077"
   rx="2.1606457"
   ry="2.2583747"
   inkscape:export-filename="/home/user/git/nim_jester2swagger/private/jestermysvagger.png"
   inkscape:export-xdpi="148.57001"
   inkscape:export-ydpi="148.57001" /><ellipse
   style="fill:#173647;fill-opacity:1;stroke:#173647;stroke-width:3.9;stroke-linecap:round;stroke-linejoin:bevel;stroke-miterlimit:4;stroke-dasharray:none;stroke-opacity:1;paint-order:markers stroke fill"
   id="ellipse10133"
   cx="50.655094"
   cy="-78.90641"
   rx="2.1606457"
   ry="2.2583747"
   inkscape:export-filename="/home/user/git/nim_jester2swagger/private/jestermysvagger.png"
   inkscape:export-xdpi="148.57001"
   inkscape:export-ydpi="148.57001" /><ellipse
   style="fill:#173647;fill-opacity:1;stroke:#173647;stroke-width:3.9;stroke-linecap:round;stroke-linejoin:bevel;stroke-miterlimit:4;stroke-dasharray:none;stroke-opacity:1;paint-order:markers stroke fill"
   id="ellipse10135"
   cx="143.3322"
   cy="28.155565"
   rx="2.1606457"
   ry="2.2583747"
   inkscape:export-filename="/home/user/git/nim_jester2swagger/private/jestermysvagger.png"
   inkscape:export-xdpi="148.57001"
   inkscape:export-ydpi="148.57001" /><ellipse
   style="fill:#173647;fill-opacity:1;stroke:#173647;stroke-width:3.9;stroke-linecap:round;stroke-linejoin:bevel;stroke-miterlimit:4;stroke-dasharray:none;stroke-opacity:1;paint-order:markers stroke fill"
   id="ellipse15505"
   cx="37.856079"
   cy="36.37442"
   rx="2.9473965"
   ry="2.7195702"
   inkscape:export-filename="/home/user/git/nim_jester2swagger/private/jestermysvagger.png"
   inkscape:export-xdpi="148.57001"
   inkscape:export-ydpi="148.57001" /><ellipse
   style="fill:#173647;fill-opacity:1;stroke:#173647;stroke-width:3.9;stroke-linecap:round;stroke-linejoin:bevel;stroke-miterlimit:4;stroke-dasharray:none;stroke-opacity:1;paint-order:markers stroke fill"
   id="ellipse15507"
   cx="37.856079"
   cy="36.37442"
   rx="2.9473965"
   ry="2.7195702"
   inkscape:export-filename="/home/user/git/nim_jester2swagger/private/jestermysvagger.png"
   inkscape:export-xdpi="148.57001"
   inkscape:export-ydpi="148.57001" /><ellipse
   style="fill:#173647;fill-opacity:1;stroke:#173647;stroke-width:3.9;stroke-linecap:round;stroke-linejoin:bevel;stroke-miterlimit:4;stroke-dasharray:none;stroke-opacity:1;paint-order:markers stroke fill"
   id="ellipse15509"
   cx="63.285671"
   cy="36.297779"
   rx="2.9473965"
   ry="2.7195702"
   inkscape:export-filename="/home/user/git/nim_jester2swagger/private/jestermysvagger.png"
   inkscape:export-xdpi="148.57001"
   inkscape:export-ydpi="148.57001" /><path
   d="m 54.28115,98.513155 c 0.0884,2.231995 0.77931,3.348005 2.72943,3.905005 1.2399,0.347 2.53415,0.558 3.80997,0.635 2.37478,0.154 4.76706,0.135 7.14184,0.308 5.63481,0.404 7.60151,4.828 6.62783,11.254 H 69.6988 c 0,-1.019 0,-1.808 -0.0175,-2.597 -0.0175,-1.366 -0.49651,-2.405 -1.89669,-2.539 -1.27583,-0.135 -2.56915,-0.135 -3.8634,-0.27 -2.57007,-0.27 -5.17422,-0.423 -7.70836,-0.904 -2.09107,-0.424 -3.65061,-1.982 -4.92643,-3.924 -2.10857,3.404 -5.1208,4.405 -8.506103,4.578 -2.321353,0.096 -4.660208,0.154 -6.999984,0.288 -2.126064,0.116 -2.816943,0.923 -2.870371,3.251 -0.0175,0.654 -0.07093,1.289 -0.106856,2.02 h -5.014858 c 0,-1.366 -0.07093,-2.616 0,-3.866 0.21279,-3.886 1.949199,-6.233 5.422937,-7.003 1.914195,-0.327 3.844971,-0.519 5.776668,-0.577 1.772334,-0.134 3.562171,-0.116 5.316087,-0.308 2.74693,-0.288 3.88089,-1.65401 4.05776,-4.636005 0.0359,-0.289 0.0884,-0.558 0.17686,-0.828 h 5.61823 c 0.0534,0.501 0.10594,0.848 0.12436,1.213 z"
   style="fill:#173647"
   id="path15767" /></g>
</svg>
