<?xml version="1.0" encoding="UTF-8"?>
<svg width="193.85" height="189.65" version="1.1" viewBox="0 0 193.85 189.65" xml:space="preserve" xmlns="http://www.w3.org/2000/svg">
<style type="text/css">
	.st0{fill:#FFFFFF;}
	.st1{fill:#2C282C;}
	.st2{fill:#173647;}
	.st3{fill:#50E4EA;}
	.st4{fill:#FCDC00;}
	.st5{fill:#85EA2D;}
	.st6{fill:#F4CF14;}
	.st7{fill:none;}
	.st8{fill:#04AADB;}
	.st9{fill:#07CED6;}
	.st10{fill:#63DB2A;}
	.st11{fill:#FF730B;}
	.st12{fill:#17D1FC;}
	.st13{fill:#00AADB;}
	.st14{fill:#758491;}
</style>
<g transform="translate(46.412 75.039)"><g stroke="#173647" stroke-width="4.5">
	
	<path d="m91.008 28.558c4.8763-11.531 10.881-22.667 21.011-29.495 10.574-2.7455 16.67 10.998 30.876 27.789l-7.4331-22.012c-7.0112-16.91-17.137-43.328-40.819-26.223l-26.624 24.872" fill="#07d7f8" style="paint-order:normal"/><path d="m10.472 29.518c-5.589-10.137-10.812-24.89-22.125-31.917-10.574-2.7455-15.846 12.201-30.052 28.992l7.4331-22.012c7.0112-16.91 13.575-42.055 37.257-24.95l30.689 24.105" fill="#f84107" style="paint-order:normal"/><path d="m29.28 7.4171c6.5301-26.871 13.879-36.666 20.427-71.038l4.4175 0.14249c5.8278 35.429 9.2221 41.707 18.085 70.934" fill="#f8b807" style="paint-order:normal"/></g><g transform="matrix(.92117 0 0 1 4.3039 -.88917)">
		
			
				
					
						<path class="st5" d="m50.328 97.669c-26.27 0-47.643-21.371-47.643-47.642s21.373-47.642 47.643-47.642 47.643 21.373 47.643 47.643-21.373 47.641-47.643 47.641z"/>
					
					
						
							<path class="st2" d="m50.328 4.769c24.996 0 45.258 20.262 45.258 45.258 0 24.995-20.262 45.258-45.258 45.258-24.995 0-45.258-20.263-45.258-45.258s20.263-45.258 45.258-45.258m0-4.769c-27.585 0-50.027 22.442-50.027 50.027s22.442 50.027 50.027 50.027 50.028-22.442 50.028-50.027-22.443-50.027-50.028-50.027z" stroke-width="1.0002"/>
						
					
				
			
		
		<path class="st2" d="m53.556 79.267c0.096-2.232 0.846-3.348 2.963-3.905 1.346-0.347 2.751-0.558 4.136-0.635 2.578-0.154 5.175-0.135 7.753-0.308 6.117-0.404 8.252-4.828 7.195-11.254h-5.31c0 1.019 0 1.808-0.019 2.597-0.019 1.366-0.539 2.405-2.059 2.539-1.385 0.135-2.789 0.135-4.194 0.27-2.79 0.27-5.617 0.423-8.368 0.904-2.27 0.424-3.963 1.982-5.348 3.924-2.289-3.404-5.559-4.405-9.234-4.578-2.52-0.096-5.059-0.154-7.599-0.288-2.308-0.116-3.058-0.923-3.116-3.251-0.019-0.654-0.077-1.289-0.116-2.02h-5.444c0 1.366-0.077 2.616 0 3.866 0.231 3.886 2.116 6.233 5.887 7.003 2.078 0.327 4.174 0.519 6.271 0.577 1.924 0.134 3.867 0.116 5.771 0.308 2.982 0.288 4.213 1.654 4.405 4.636 0.039 0.289 0.096 0.558 0.192 0.828h6.099c0.058-0.501 0.115-0.848 0.135-1.213z"/>
	</g>
	
<path d="m42.818 55.793 13.545-0.0118 8e-5 0.09224" fill="none" stroke-width="0"/><g fill="#173647"><g stroke="#173647" stroke-linecap="round" stroke-linejoin="bevel"><ellipse cx="50.444" cy="53.931" rx="2.9474" ry="2.7196" stroke-width="3.9" style="paint-order:markers stroke fill"/><ellipse cx="-42.301" cy="27.554" rx="2.1606" ry="2.2584" stroke-width="3.9" style="paint-order:markers stroke fill"/><ellipse cx="52.1" cy="-69.253" rx="2.9951" ry="3.0972" stroke-width="5.3773" style="paint-order:markers stroke fill"/><g stroke-width="3.9"><ellipse cx="143.33" cy="28.156" rx="2.1606" ry="2.2584" style="paint-order:markers stroke fill"/><ellipse cx="37.856" cy="36.374" rx="2.9474" ry="2.7196" style="paint-order:markers stroke fill"/><ellipse cx="37.856" cy="36.374" rx="2.9474" ry="2.7196" style="paint-order:markers stroke fill"/><ellipse cx="63.286" cy="36.298" rx="2.9474" ry="2.7196" style="paint-order:markers stroke fill"/></g></g><path d="m54.281 98.513c0.0884 2.232 0.77931 3.348 2.7294 3.905 1.2399 0.347 2.5342 0.558 3.81 0.635 2.3748 0.154 4.7671 0.135 7.1418 0.308 5.6348 0.404 7.6015 4.828 6.6278 11.254h-4.8914c0-1.019 0-1.808-0.0175-2.597-0.0175-1.366-0.49651-2.405-1.8967-2.539-1.2758-0.135-2.5692-0.135-3.8634-0.27-2.5701-0.27-5.1742-0.423-7.7084-0.904-2.0911-0.424-3.6506-1.982-4.9264-3.924-2.1086 3.404-5.1208 4.405-8.5061 4.578-2.3214 0.096-4.6602 0.154-7 0.288-2.1261 0.116-2.8169 0.923-2.8704 3.251-0.0175 0.654-0.07093 1.289-0.10686 2.02h-5.0149c0-1.366-0.07093-2.616 0-3.866 0.21279-3.886 1.9492-6.233 5.4229-7.003 1.9142-0.327 3.845-0.519 5.7767-0.577 1.7723-0.134 3.5622-0.116 5.3161-0.308 2.7469-0.288 3.8809-1.654 4.0578-4.636 0.0359-0.289 0.0884-0.558 0.17686-0.828h5.6182c0.0534 0.501 0.10594 0.848 0.12436 1.213z"/></g></g>
</svg>
